<mxfile host="app.diagrams.net" modified="2023-11-09T14:40:00.742Z" agent="Mozilla/5.0 (Windows NT 10.0; Win64; x64) AppleWebKit/537.36 (KHTML, like Gecko) Chrome/119.0.0.0 Safari/537.36" etag="F0dyybVaDMKBnEKz86UO" version="22.1.0" type="device">
  <diagram name="Page-1" id="e7e014a7-5840-1c2e-5031-d8a46d1fe8dd">
    <mxGraphModel dx="1050" dy="530" grid="1" gridSize="10" guides="1" tooltips="1" connect="1" arrows="1" fold="1" page="1" pageScale="1" pageWidth="1169" pageHeight="826" background="none" math="0" shadow="0">
      <root>
        <mxCell id="0" />
        <mxCell id="1" parent="0" />
        <mxCell id="EF-QOKdP-zuiBsv5D5__-41" value="Пользователь" style="shape=umlActor;verticalLabelPosition=bottom;verticalAlign=top;html=1;outlineConnect=0;" vertex="1" parent="1">
          <mxGeometry x="450" y="60" width="30" height="60" as="geometry" />
        </mxCell>
        <mxCell id="EF-QOKdP-zuiBsv5D5__-48" value="Зарегистрироваться" style="ellipse;whiteSpace=wrap;html=1;" vertex="1" parent="1">
          <mxGeometry x="550" y="160" width="130" height="50" as="geometry" />
        </mxCell>
        <mxCell id="EF-QOKdP-zuiBsv5D5__-51" value="Войти в учетную запись" style="ellipse;whiteSpace=wrap;html=1;" vertex="1" parent="1">
          <mxGeometry x="290" y="160" width="130" height="50" as="geometry" />
        </mxCell>
        <mxCell id="EF-QOKdP-zuiBsv5D5__-52" value="" style="endArrow=block;endFill=1;html=1;edgeStyle=orthogonalEdgeStyle;align=left;verticalAlign=top;rounded=0;entryX=0.5;entryY=0;entryDx=0;entryDy=0;" edge="1" parent="1" source="EF-QOKdP-zuiBsv5D5__-41" target="EF-QOKdP-zuiBsv5D5__-51">
          <mxGeometry x="-1" relative="1" as="geometry">
            <mxPoint x="480" y="320" as="sourcePoint" />
            <mxPoint x="640" y="320" as="targetPoint" />
          </mxGeometry>
        </mxCell>
        <mxCell id="EF-QOKdP-zuiBsv5D5__-54" value="" style="endArrow=block;endFill=1;html=1;edgeStyle=orthogonalEdgeStyle;align=left;verticalAlign=top;rounded=0;entryX=0.5;entryY=0;entryDx=0;entryDy=0;" edge="1" parent="1" target="EF-QOKdP-zuiBsv5D5__-48">
          <mxGeometry x="-1" relative="1" as="geometry">
            <mxPoint x="480" y="90" as="sourcePoint" />
            <mxPoint x="365" y="170" as="targetPoint" />
          </mxGeometry>
        </mxCell>
        <mxCell id="EF-QOKdP-zuiBsv5D5__-56" value="Посетитель" style="shape=umlActor;verticalLabelPosition=bottom;verticalAlign=top;html=1;outlineConnect=0;" vertex="1" parent="1">
          <mxGeometry x="820" y="60" width="30" height="60" as="geometry" />
        </mxCell>
        <mxCell id="EF-QOKdP-zuiBsv5D5__-57" value="" style="endArrow=block;endFill=1;html=1;edgeStyle=orthogonalEdgeStyle;align=left;verticalAlign=top;rounded=0;entryX=0.788;entryY=0.072;entryDx=0;entryDy=0;entryPerimeter=0;" edge="1" parent="1" source="EF-QOKdP-zuiBsv5D5__-56" target="EF-QOKdP-zuiBsv5D5__-48">
          <mxGeometry x="-1" relative="1" as="geometry">
            <mxPoint x="490" y="100" as="sourcePoint" />
            <mxPoint x="625" y="170" as="targetPoint" />
          </mxGeometry>
        </mxCell>
        <mxCell id="EF-QOKdP-zuiBsv5D5__-58" value="Зарегестрированный&lt;br&gt;пользователь" style="shape=umlActor;verticalLabelPosition=bottom;verticalAlign=top;html=1;outlineConnect=0;" vertex="1" parent="1">
          <mxGeometry x="160" y="280" width="30" height="60" as="geometry" />
        </mxCell>
        <mxCell id="EF-QOKdP-zuiBsv5D5__-59" value="" style="endArrow=block;endFill=1;html=1;edgeStyle=orthogonalEdgeStyle;align=left;verticalAlign=top;rounded=0;exitX=0.5;exitY=0;exitDx=0;exitDy=0;exitPerimeter=0;" edge="1" parent="1" source="EF-QOKdP-zuiBsv5D5__-58">
          <mxGeometry x="-1" relative="1" as="geometry">
            <mxPoint x="245" y="80" as="sourcePoint" />
            <mxPoint x="440" y="80" as="targetPoint" />
            <Array as="points">
              <mxPoint x="175" y="80" />
            </Array>
          </mxGeometry>
        </mxCell>
        <mxCell id="EF-QOKdP-zuiBsv5D5__-60" value="Выйти из учетной&lt;br&gt;записи" style="ellipse;whiteSpace=wrap;html=1;" vertex="1" parent="1">
          <mxGeometry x="110" y="430" width="130" height="50" as="geometry" />
        </mxCell>
        <mxCell id="EF-QOKdP-zuiBsv5D5__-61" value="" style="endArrow=block;endFill=1;html=1;edgeStyle=orthogonalEdgeStyle;align=left;verticalAlign=top;rounded=0;entryX=0.5;entryY=0;entryDx=0;entryDy=0;" edge="1" parent="1" source="EF-QOKdP-zuiBsv5D5__-58" target="EF-QOKdP-zuiBsv5D5__-60">
          <mxGeometry x="-1" relative="1" as="geometry">
            <mxPoint x="365" y="370" as="sourcePoint" />
            <mxPoint x="270" y="440" as="targetPoint" />
          </mxGeometry>
        </mxCell>
        <mxCell id="EF-QOKdP-zuiBsv5D5__-70" value="" style="edgeStyle=orthogonalEdgeStyle;rounded=0;orthogonalLoop=1;jettySize=auto;html=1;" edge="1" parent="1" source="EF-QOKdP-zuiBsv5D5__-62" target="EF-QOKdP-zuiBsv5D5__-66">
          <mxGeometry relative="1" as="geometry" />
        </mxCell>
        <mxCell id="EF-QOKdP-zuiBsv5D5__-62" value="добавить объявление" style="ellipse;whiteSpace=wrap;html=1;" vertex="1" parent="1">
          <mxGeometry x="290" y="388" width="130" height="50" as="geometry" />
        </mxCell>
        <mxCell id="EF-QOKdP-zuiBsv5D5__-65" value="Связаться с автором&lt;br&gt;объявления" style="ellipse;whiteSpace=wrap;html=1;" vertex="1" parent="1">
          <mxGeometry x="440" y="230" width="130" height="50" as="geometry" />
        </mxCell>
        <mxCell id="EF-QOKdP-zuiBsv5D5__-66" value="удалить объявление" style="ellipse;whiteSpace=wrap;html=1;" vertex="1" parent="1">
          <mxGeometry x="290" y="230" width="130" height="50" as="geometry" />
        </mxCell>
        <mxCell id="EF-QOKdP-zuiBsv5D5__-67" value="" style="endArrow=block;endFill=1;html=1;edgeStyle=orthogonalEdgeStyle;align=left;verticalAlign=top;rounded=0;entryX=0.5;entryY=1;entryDx=0;entryDy=0;" edge="1" parent="1" source="EF-QOKdP-zuiBsv5D5__-58" target="EF-QOKdP-zuiBsv5D5__-66">
          <mxGeometry x="-1" relative="1" as="geometry">
            <mxPoint x="630" y="500" as="sourcePoint" />
            <mxPoint x="895" y="300" as="targetPoint" />
            <Array as="points" />
          </mxGeometry>
        </mxCell>
        <mxCell id="EF-QOKdP-zuiBsv5D5__-68" value="" style="endArrow=block;endFill=1;html=1;edgeStyle=orthogonalEdgeStyle;align=left;verticalAlign=top;rounded=0;entryX=0.5;entryY=1;entryDx=0;entryDy=0;" edge="1" parent="1" source="EF-QOKdP-zuiBsv5D5__-58" target="EF-QOKdP-zuiBsv5D5__-65">
          <mxGeometry x="-1" relative="1" as="geometry">
            <mxPoint x="200" y="320" as="sourcePoint" />
            <mxPoint x="365" y="290" as="targetPoint" />
            <Array as="points" />
          </mxGeometry>
        </mxCell>
        <mxCell id="EF-QOKdP-zuiBsv5D5__-69" value="" style="endArrow=block;endFill=1;html=1;edgeStyle=orthogonalEdgeStyle;align=left;verticalAlign=top;rounded=0;entryX=0.5;entryY=0;entryDx=0;entryDy=0;" edge="1" parent="1" target="EF-QOKdP-zuiBsv5D5__-62">
          <mxGeometry x="-1" relative="1" as="geometry">
            <mxPoint x="190" y="310" as="sourcePoint" />
            <mxPoint x="375" y="300" as="targetPoint" />
            <Array as="points" />
          </mxGeometry>
        </mxCell>
        <mxCell id="EF-QOKdP-zuiBsv5D5__-71" value="просмотреть список&lt;br&gt;объявлений" style="ellipse;whiteSpace=wrap;html=1;" vertex="1" parent="1">
          <mxGeometry x="440" y="388" width="130" height="50" as="geometry" />
        </mxCell>
        <mxCell id="EF-QOKdP-zuiBsv5D5__-72" value="" style="endArrow=block;endFill=1;html=1;edgeStyle=orthogonalEdgeStyle;align=left;verticalAlign=top;rounded=0;entryX=0.5;entryY=0;entryDx=0;entryDy=0;exitX=0.5;exitY=0.5;exitDx=0;exitDy=0;exitPerimeter=0;" edge="1" parent="1" source="EF-QOKdP-zuiBsv5D5__-58" target="EF-QOKdP-zuiBsv5D5__-71">
          <mxGeometry x="-1" relative="1" as="geometry">
            <mxPoint x="200" y="320" as="sourcePoint" />
            <mxPoint x="515" y="290" as="targetPoint" />
            <Array as="points" />
          </mxGeometry>
        </mxCell>
      </root>
    </mxGraphModel>
  </diagram>
</mxfile>
